<svg xmlns="http://www.w3.org/2000/svg" version="1.1" xmlns:xlink="http://www.w3.org/1999/xlink" width="2000" height="114" viewBox="0 0 2000 114"><svg xml:space="preserve" width="2000" height="114" data-version="2" data-id="lg_8YjuKbxyApUVpAAqW8" viewBox="0 0 588 114" x="0" y="0"><rect width="100%" height="100%" fill="transparent"></rect><path fill="#fff" d="M161.628 80.25h-36.1V26.41h36.02v9.14h-25v13.01h23.09v8.99h-23.09V71.1h25.08z" paint-order="stroke"></path><rect width="36.1" height="53.84" x="-18.05" y="-26.92" fill="none" rx="0" ry="0" transform="translate(144.08 53.83)"></rect><path fill="#fff" d="M189.438 81.01q-6.68 0-11.68-2.48-5.01-2.48-7.77-6.88-2.77-4.41-2.77-10.3V26.41h11.02v34.04q0 3.14 1.39 5.58 1.4 2.44 3.91 3.83 2.51 1.39 5.9 1.39 3.36 0 5.88-1.39 2.51-1.39 3.9-3.83 1.39-2.44 1.39-5.58V26.41h11.06v34.94q0 5.89-2.79 10.3-2.78 4.4-7.78 6.88-5.01 2.48-11.66 2.48" paint-order="stroke"></path><rect width="44.45" height="54.6" x="-22.23" y="-27.3" fill="none" rx="0" ry="0" transform="translate(189.94 54.21)"></rect><path fill="#fff" d="M229.148 80.25h-11.02V26.41h20.99q6.15 0 10.45 2.17 4.29 2.16 6.55 6.1 2.26 3.94 2.26 9.25 0 5.31-2.29 9.16-2.3 3.85-6.65 5.89-4.36 2.04-10.57 2.04h-14.24V52.1h12.47q3.4 0 5.56-.92 2.17-.92 3.26-2.75 1.08-1.82 1.08-4.5 0-2.74-1.08-4.6-1.09-1.86-3.27-2.84-2.19-.98-5.59-.98h-7.91zm31.15 0h-12.22l-13.11-24.5h11.96z" paint-order="stroke"></path><rect width="42.17" height="53.84" x="-21.09" y="-26.92" fill="none" rx="0" ry="0" transform="translate(239.71 53.83)"></rect><path fill="#fff" d="M287.098 80.97q-7.12 0-12.81-3.25t-8.99-9.43q-3.31-6.18-3.31-14.93 0-8.78 3.31-14.97 3.3-6.2 8.99-9.45 5.69-3.25 12.81-3.25 7.16 0 12.83 3.25t8.98 9.45q3.31 6.19 3.31 14.97 0 8.75-3.31 14.93t-8.98 9.43q-5.67 3.25-12.83 3.25m0-9.79q4.19 0 7.32-2.04 3.13-2.05 4.86-6.04 1.73-3.99 1.73-9.74 0-5.81-1.73-9.81-1.73-3.99-4.86-6.03-3.13-2.04-7.32-2.04-4.15 0-7.3 2.06-3.14 2.06-4.87 6.05-1.74 3.99-1.74 9.77 0 5.75 1.74 9.72 1.73 3.98 4.87 6.04 3.15 2.06 7.3 2.06" paint-order="stroke"></path><rect width="50.23" height="55.28" x="-25.11" y="-27.64" fill="none" rx="0" ry="0" transform="translate(287.6 53.83)"></rect><path fill="#fff" d="M336.958 81.04q-6.47 0-11.25-1.99-4.79-1.98-7.46-5.89-2.68-3.9-2.82-9.61h10.73q.22 2.71 1.62 4.54 1.41 1.82 3.76 2.73 2.35.9 5.31.9 2.97 0 5.15-.85 2.19-.85 3.42-2.4 1.23-1.56 1.23-3.62 0-1.84-1.11-3.09-1.1-1.24-3.16-2.15-2.06-.9-5.02-1.59l-5.93-1.48q-6.83-1.66-10.69-5.22-3.87-3.56-3.87-9.41 0-4.88 2.62-8.53 2.62-3.65 7.19-5.67t10.43-2.02q5.96 0 10.4 2.04 4.45 2.04 6.94 5.67t2.57 8.36h-10.66q-.29-3.25-2.77-5.02-2.47-1.77-6.59-1.77-2.78 0-4.77.8-1.99.79-3.04 2.2-1.04 1.41-1.04 3.22 0 1.98 1.21 3.3 1.21 1.32 3.18 2.13 1.97.82 4.24 1.36l4.88 1.19q3.4.76 6.32 2.06 2.93 1.3 5.13 3.2 2.21 1.9 3.42 4.5t1.21 6q0 4.87-2.46 8.51-2.46 3.63-7.12 5.61-4.66 1.99-11.2 1.99" paint-order="stroke"></path><rect width="42.31" height="55.35" x="-21.16" y="-27.68" fill="none" rx="0" ry="0" transform="translate(337.08 53.87)"></rect><path fill="#fff" d="M386.388 80.25h-12.61l-14.46-53.84h12.04l6.25 26.48q.76 3.33 1.39 7.1.63 3.78 1.25 7.59.61 3.81 1.19 7.32h-1.95q.65-3.51 1.3-7.32.65-3.81 1.33-7.59.69-3.77 1.52-7.1l6.58-26.48h11.45l6.54 26.48q.83 3.33 1.52 7.1.69 3.78 1.35 7.59.67 3.81 1.32 7.32h-2.02q.61-3.51 1.21-7.32.6-3.81 1.27-7.59.66-3.77 1.39-7.1l6.25-26.48h12.07l-14.49 53.84h-12.58l-7.15-27.54q-1.16-4.59-1.97-9.95-.81-5.37-1.83-11h2.75q-1.12 5.52-1.82 10.8-.71 5.28-1.97 10.15z" paint-order="stroke"></path><rect width="73.25" height="53.84" x="-36.63" y="-26.92" fill="none" rx="0" ry="0" transform="translate(396.44 53.83)"></rect><path fill="#fff" d="M446.978 80.25h-11.02V26.41h20.99q6.14 0 10.44 2.17 4.3 2.16 6.56 6.1 2.26 3.94 2.26 9.25 0 5.31-2.29 9.16-2.3 3.85-6.65 5.89-4.36 2.04-10.57 2.04h-14.24V52.1h12.47q3.39 0 5.56-.92 2.17-.92 3.25-2.75 1.09-1.82 1.09-4.5 0-2.74-1.09-4.6-1.08-1.86-3.27-2.84-2.18-.98-5.58-.98h-7.91zm31.15 0h-12.22l-13.11-24.5h11.96z" paint-order="stroke"></path><rect width="42.17" height="53.84" x="-21.09" y="-26.92" fill="none" rx="0" ry="0" transform="translate(457.54 53.83)"></rect><path fill="#fff" d="M481.298 26.41h11.02v53.84h-11.02z" paint-order="stroke"></path><rect width="11.02" height="53.84" x="-5.51" y="-26.92" fill="none" rx="0" ry="0" transform="translate(487.3 53.83)"></rect><path fill="#fff" d="M509.838 80.25h-11.02V26.41h35.41v9.14h-24.39v15.03h22.01v9h-22.01z" paint-order="stroke"></path><rect width="35.41" height="53.84" x="-17.7" y="-26.92" fill="none" rx="0" ry="0" transform="translate(517.02 53.83)"></rect><path fill="#fff" d="M553.308 35.55h-16.48v-9.14h43.97v9.14h-16.44v44.7h-11.05z" paint-order="stroke"></path><rect width="43.97" height="53.84" x="-21.98" y="-26.92" fill="none" rx="0" ry="0" transform="translate(559.31 53.83)"></rect><circle r="21.7" fill="#8bd988" transform="translate(66.53 77.87)scale(1.6125)"></circle><circle r="21.7" fill="#286cff" transform="translate(41.2 36.13)scale(1.6125)"></circle></svg></svg>